name ./resultDataOpenSim/trcMotMarkerGrf/sub06/grf-15-04.mot
datacolumns 19
datarows 20
range 0.53200000 0.60800000
endheader

                time	     ground_force_vx	     ground_force_vy	     ground_force_vz	     ground_force_px	     ground_force_py	     ground_force_pz	   l_ground_force_vx	   l_ground_force_vy	   l_ground_force_vz	   l_ground_force_px	   l_ground_force_py	   l_ground_force_pz	     ground_torque_x	     ground_torque_y	     ground_torque_z	   l_ground_torque_x	   l_ground_torque_y	   l_ground_torque_z	
          0.53200000	         89.22912168	        634.21272090	        -26.76814613	         -0.75227759	          0.00000000	          0.06017578	          0.00000000	          0.00000000	          0.00000000	          0.00000000	          0.00000000	          0.00000000	          0.00000000	          2.06366868	          0.00000000	          0.00000000	          0.00000000	          0.00000000	
          0.53600000	         94.85948310	        653.32567485	        -25.53503435	         -0.75171334	          0.00000000	          0.05960742	          0.00000000	          0.00000000	          0.00000000	          0.00000000	          0.00000000	          0.00000000	          0.00000000	          2.23732890	          0.00000000	          0.00000000	          0.00000000	          0.00000000	
          0.54000000	        100.43296306	        671.90546604	        -24.66476396	         -0.75113542	          0.00000000	          0.05908948	          0.00000000	          0.00000000	          0.00000000	          0.00000000	          0.00000000	          0.00000000	          0.00000000	          2.39049866	          0.00000000	          0.00000000	          0.00000000	          0.00000000	
          0.54400000	        106.02417829	        689.66741262	        -24.24904878	         -0.75045861	          0.00000000	          0.05864656	          0.00000000	          0.00000000	          0.00000000	          0.00000000	          0.00000000	          0.00000000	          0.00000000	          2.51081560	          0.00000000	          0.00000000	          0.00000000	          0.00000000	
          0.54800000	        111.78409772	        706.57758272	        -24.29757080	         -0.74970445	          0.00000000	          0.05826469	          0.00000000	          0.00000000	          0.00000000	          0.00000000	          0.00000000	          0.00000000	          0.00000000	          2.59266238	          0.00000000	          0.00000000	          0.00000000	          0.00000000	
          0.55200000	        117.90497785	        722.76288978	        -24.72896593	         -0.74899365	          0.00000000	          0.05790940	          0.00000000	          0.00000000	          0.00000000	          0.00000000	          0.00000000	          0.00000000	          0.00000000	          2.63833600	          0.00000000	          0.00000000	          0.00000000	          0.00000000	
          0.55600000	        124.51583157	        738.27051532	        -25.39322541	         -0.74842165	          0.00000000	          0.05756039	          0.00000000	          0.00000000	          0.00000000	          0.00000000	          0.00000000	          0.00000000	          0.00000000	          2.65713092	          0.00000000	          0.00000000	          0.00000000	          0.00000000	
          0.56000000	        131.60199561	        752.92639887	        -26.11577165	         -0.74796498	          0.00000000	          0.05722293	          0.00000000	          0.00000000	          0.00000000	          0.00000000	          0.00000000	          0.00000000	          0.00000000	          2.66262622	          0.00000000	          0.00000000	          0.00000000	          0.00000000	
          0.56400000	        139.03889211	        766.41910532	        -26.73665606	         -0.74751708	          0.00000000	          0.05691399	          0.00000000	          0.00000000	          0.00000000	          0.00000000	          0.00000000	          0.00000000	          0.00000000	          2.66895728	          0.00000000	          0.00000000	          0.00000000	          0.00000000	
          0.56800000	        146.68219390	        778.52119458	        -27.13548391	         -0.74700618	          0.00000000	          0.05664136	          0.00000000	          0.00000000	          0.00000000	          0.00000000	          0.00000000	          0.00000000	          0.00000000	          2.68705777	          0.00000000	          0.00000000	          0.00000000	          0.00000000	
          0.57200000	        154.41603964	        789.20728777	        -27.24564767	         -0.74645619	          0.00000000	          0.05639042	          0.00000000	          0.00000000	          0.00000000	          0.00000000	          0.00000000	          0.00000000	          0.00000000	          2.72178591	          0.00000000	          0.00000000	          0.00000000	          0.00000000	
          0.57600000	        162.14214393	        798.51866119	        -27.07408144	         -0.74593328	          0.00000000	          0.05613855	          0.00000000	          0.00000000	          0.00000000	          0.00000000	          0.00000000	          0.00000000	          0.00000000	          2.77056036	          0.00000000	          0.00000000	          0.00000000	          0.00000000	
          0.58000000	        169.75426791	        806.33220895	        -26.71290432	         -0.74545055	          0.00000000	          0.05588408	          0.00000000	          0.00000000	          0.00000000	          0.00000000	          0.00000000	          0.00000000	          0.00000000	          2.82379525	          0.00000000	          0.00000000	          0.00000000	          0.00000000	
          0.58400000	        177.14328083	        812.31711684	        -26.30706895	         -0.74494246	          0.00000000	          0.05564939	          0.00000000	          0.00000000	          0.00000000	          0.00000000	          0.00000000	          0.00000000	          0.00000000	          2.86706447	          0.00000000	          0.00000000	          0.00000000	          0.00000000	
          0.58800000	        184.23793443	        816.11994510	        -25.99637134	         -0.74435162	          0.00000000	          0.05545329	          0.00000000	          0.00000000	          0.00000000	          0.00000000	          0.00000000	          0.00000000	          0.00000000	          2.88444858	          0.00000000	          0.00000000	          0.00000000	          0.00000000	
          0.59200000	        191.03852972	        817.55140308	        -25.88160531	         -0.74369359	          0.00000000	          0.05529369	          0.00000000	          0.00000000	          0.00000000	          0.00000000	          0.00000000	          0.00000000	          0.00000000	          2.86211142	          0.00000000	          0.00000000	          0.00000000	          0.00000000	
          0.59600000	        197.59699451	        816.58136013	        -26.02171349	         -0.74303800	          0.00000000	          0.05515747	          0.00000000	          0.00000000	          0.00000000	          0.00000000	          0.00000000	          0.00000000	          0.00000000	          2.79116443	          0.00000000	          0.00000000	          0.00000000	          0.00000000	
          0.60000000	        203.95803158	        813.19677580	        -26.42587748	         -0.74242914	          0.00000000	          0.05503482	          0.00000000	          0.00000000	          0.00000000	          0.00000000	          0.00000000	          0.00000000	          0.00000000	          2.66929787	          0.00000000	          0.00000000	          0.00000000	          0.00000000	
          0.60400000	        210.11893052	        807.32098671	        -27.03006017	         -0.74184100	          0.00000000	          0.05492667	          0.00000000	          0.00000000	          0.00000000	          0.00000000	          0.00000000	          0.00000000	          0.00000000	          2.50109365	          0.00000000	          0.00000000	          0.00000000	          0.00000000	
          0.60800000	        216.03711430	        798.87616984	        -27.69566253	         -0.74122986	          0.00000000	          0.05483197	          0.00000000	          0.00000000	          0.00000000	          0.00000000	          0.00000000	          0.00000000	          0.00000000	          2.29708620	          0.00000000	          0.00000000	          0.00000000	          0.00000000	
